:SAMPLES-PER-SECOND 30
:FRAME-RANGE 1-3549
:FULLY-SPECIFIED
:DEGREES
2108
root  -24.4609 38.9903 -64.2143 -178.736 52.3608 -178.618
RightUpLeg  -3.59161 2.07503 8.75824
RightLeg  19.6004 -0.677301 -0.836366
RightFoot  -15.7314 -0.333415 -5.921
RightToes  1.218e-010 1.26228e-014 -6.01869e-014
Spine  -6.027 -1.24291 2.55746
Spine1  10.0089 -1.85865 2.23012
HEad  19.7269 -29.7904 7.51482
LeftShoulder1  0.99607 -0.568409 -19.4575
LeftArm  0.0280332 5.82176 -46.661
LeftForeArm  39.5522 -3.69945 -12.0266
LeftHand  -0.0495586 4.40533 3.38464
RightShoulder  1.0293 -0.0530641 25.4738
RightArm  -22.5703 -3.41589 48.1833
RightForeArm  74.826 0.0427496 5.47765
RightHand  0.0136906 -6.13324 -6.31727
LeftUpLeg  -22.8633 -5.94521 9.60698
LeftLeg  29.3266 7.81641 5.06088
LeftFoot  -2.2516 0.838868 -10.3634
LeftToes  -1.43952e-010 7.51141e-011 -1.22592e-011
2109
root  -23.8093 38.9862 -65.0371 -178.813 54.5074 -179.122
RightUpLeg  -2.01878 3.25 8.01389
RightLeg  19.3752 0.103312 -0.638368
RightFoot  -16.9267 -0.388231 -5.60962
RightToes  1.218e-010 1.26228e-014 -6.01869e-014
Spine  -6.31378 -1.34093 1.65378
Spine1  9.96556 -1.99361 2.04234
HEad  19.4385 -29.3111 7.85418
LeftShoulder1  0.997036 -0.535686 -19.7197
LeftArm  -0.670634 7.18141 -46.5253
LeftForeArm  40.8011 -0.965905 -12.3355
LeftHand  -0.0398735 4.53447 2.36294
RightShoulder  0.988219 -0.201115 25.6561
RightArm  -22.3865 -3.84603 47.197
RightForeArm  74.6983 -0.16717 5.53898
RightHand  -0.00631711 -5.79329 -5.6463
LeftUpLeg  -22.7019 -9.24451 11.029
LeftLeg  18.9617 5.35073 2.36457
LeftFoot  0.41109 1.18943 -11.5521
LeftToes  -1.43952e-010 7.51141e-011 -1.22592e-011
2110
root  -23.1121 38.9581 -65.8487 -178.554 56.3798 -179.267
RightUpLeg  -0.404413 4.29492 7.45769
RightLeg  18.941 0.89349 -0.307646
RightFoot  -17.8672 -0.446059 -5.70137
RightToes  1.218e-010 1.26228e-014 -6.01869e-014
Spine  -6.84615 -1.5211 0.707429
Spine1  10.329 -2.22765 2.00898
HEad  19.0859 -28.9796 8.19032
LeftShoulder1  0.91905 -0.179826 -20.1606
LeftArm  -0.708844 8.64398 -46.1636
LeftForeArm  41.3234 0.73375 -12.5283
LeftHand  -0.034513 4.52055 1.51144
RightShoulder  0.95474 -0.299821 25.5741
RightArm  -22.7553 -4.5378 46.4535
RightForeArm  74.6714 -0.603225 5.33073
RightHand  -0.00468371 -5.83037 -5.64624
LeftUpLeg  -21.9901 -3.85705 9.25156
LeftLeg  8.8475 -4.32342 2.14773
LeftFoot  2.73042 1.72071 -14.02
LeftToes  -1.43952e-010 7.51141e-011 -1.22592e-011
2111
root  -22.4094 38.9144 -66.6316 -178.443 58.2549 -179.413
RightUpLeg  1.34085 6.28182 7.09127
RightLeg  18.4574 0.68389 -0.253142
RightFoot  -18.7137 -0.50049 -5.80005
RightToes  1.218e-010 1.26228e-014 -6.01869e-014
Spine  -7.02267 -1.68201 -0.272783
Spine1  10.497 -2.30619 1.7006
HEad  18.9703 -28.8779 8.46598
LeftShoulder1  0.856008 0.105452 -20.5668
LeftArm  -0.733129 10.5021 -45.5528
LeftForeArm  41.4702 1.68858 -12.6305
LeftHand  -0.0307053 4.33063 0.867703
RightShoulder  0.934041 -0.37609 25.6932
RightArm  -23.1177 -5.43842 45.39
RightForeArm  74.657 -1.25736 5.08514
RightHand  -0.00519547 -5.83055 -5.53861
LeftUpLeg  -21.8032 2.66773 7.33991
LeftLeg  1.2951 -12.3872 2.20146
LeftFoot  0.887317 1.73504 -16.1582
LeftToes  -1.43952e-010 7.51141e-011 -1.22592e-011
2112
root  -21.7056 38.7839 -67.4567 -178.565 59.7385 -179.7
RightUpLeg  2.79273 7.49706 6.43276
RightLeg  18.8695 0.882249 0.0816698
RightFoot  -20.1284 -0.580497 -5.7788
RightToes  1.218e-010 1.26228e-014 -6.01869e-014
Spine  -7.01983 -1.94234 -1.24122
Spine1  10.6817 -2.47101 1.45447
HEad  18.7846 -28.9392 8.75019
LeftShoulder1  0.774295 0.454082 -20.9979
LeftArm  -0.685991 12.1911 -44.8249
LeftForeArm  41.0699 2.2712 -12.7223
LeftHand  -0.0296717 4.37593 0.867997
RightShoulder  0.900958 -0.499844 25.9191
RightArm  -23.4828 -6.30022 44.2354
RightForeArm  74.3938 -2.11503 4.81199
RightHand  0.000779389 -5.97478 -5.62981
LeftUpLeg  -22.31 3.70663 7.14346
LeftLeg  -1.89138 -12.9325 1.46569
LeftFoot  -3.85284 1.1956 -17.7953
LeftToes  -1.43952e-010 7.51141e-011 -1.22592e-011
2113
root  -20.9981 38.5448 -68.3485 -178.136 60.4319 -179.411
RightUpLeg  3.86264 8.42748 6.25145
RightLeg  20.1732 0.441256 -0.0343126
RightFoot  -21.9217 -0.654161 -5.45866
RightToes  1.218e-010 1.26228e-014 -6.01869e-014
Spine  -6.90507 -2.25128 -1.80316
Spine1  10.6814 -2.85608 1.68091
HEad  18.3337 -29.4113 8.95621
LeftShoulder1  0.715215 0.705459 -21.3735
LeftArm  -0.831059 13.3733 -44.2843
LeftForeArm  40.6419 2.8044 -12.717
LeftHand  -0.0296105 4.46891 1.03417
RightShoulder  0.780319 -0.889812 26.0685
RightArm  -24.0716 -7.24668 43.2108
RightForeArm  74.2932 -2.96441 4.41412
RightHand  0.00688738 -6.07704 -5.74619
LeftUpLeg  -24.1849 3.34819 6.6422
LeftLeg  0.614093 -12.2415 0.872474
LeftFoot  -5.05373 0.894208 -15.6499
LeftToes  -1.43952e-010 7.51141e-011 -1.22592e-011
2114
root  -20.2622 38.3471 -69.2647 -177.373 61.0669 -178.744
RightUpLeg  4.93012 9.4905 6.28219
RightLeg  21.531 0.136823 -0.156461
RightFoot  -23.093 -0.609549 -4.40181
RightToes  1.218e-010 1.26228e-014 -6.01869e-014
Spine  -6.94841 -2.31901 -1.94132
Spine1  10.8648 -2.95519 1.69879
HEad  17.698 -30.1597 9.26661
LeftShoulder1  0.658578 0.921145 -21.4933
LeftArm  -1.5167 14.0662 -44.1787
LeftForeArm  40.5428 3.40912 -12.5031
LeftHand  -0.0314776 4.56577 1.02783
RightShoulder  0.733305 -1.04969 26.2596
RightArm  -24.3989 -8.8364 41.8975
RightForeArm  73.5448 -3.3632 4.22589
RightHand  0.00353471 -6.01628 -5.65007
LeftUpLeg  -25.6845 1.49966 6.09827
LeftLeg  4.2843 -10.2801 1.70201
LeftFoot  -1.12351 1.35839 -15.0481
LeftToes  -1.43952e-010 7.51141e-011 -1.22592e-011
2115
root  -19.4657 38.1759 -70.224 -176.539 62.2697 -178.061
RightUpLeg  5.80074 10.4107 5.98478
RightLeg  23.2933 0.854273 0.184412
RightFoot  -23.7635 -0.533273 -3.42062
RightToes  1.218e-010 1.26228e-014 -6.01869e-014
Spine  -7.14028 -2.08733 -2.03292
Spine1  10.8652 -2.73646 1.71563
HEad  17.4477 -30.6429 9.53592
LeftShoulder1  0.52114 1.42483 -21.5888
LeftArm  -1.75446 14.8017 -44.0429
LeftForeArm  40.3071 3.45821 -12.4242
LeftHand  -0.0340021 4.7351 1.2063
RightShoulder  0.737699 -1.06396 26.6819
RightArm  -24.0921 -10.4471 40.2301
RightForeArm  73.0114 -4.15244 4.26428
RightHand  0.00418822 -6.04494 -5.55899
LeftUpLeg  -26.5767 -1.95038 6.82911
LeftLeg  8.34269 -10.101 1.70305
LeftFoot  2.78312 2.07894 -16.8158
LeftToes  -1.43952e-010 7.51141e-011 -1.22592e-011
2116
root  -18.6529 38.0465 -71.1809 -176.649 63.2394 -178.615
RightUpLeg  6.02043 11.1042 4.97273
RightLeg  25.948 1.67454 0.662707
RightFoot  -23.9729 -0.389703 -2.05408
RightToes  1.218e-010 1.26228e-014 -6.01869e-014
Spine  -7.14676 -1.96762 -2.93538
Spine1  10.3126 -2.65142 2.09894
HEad  17.6322 -30.9117 10.0492
LeftShoulder1  0.359432 2.01092 -21.6521
LeftArm  -1.58461 15.4511 -43.6831
LeftForeArm  39.6637 3.00685 -12.462
LeftHand  -0.0349357 4.75367 1.3805
RightShoulder  0.677964 -1.29647 27.5177
RightArm  -24.3527 -11.3067 38.828
RightForeArm  73.594 -5.23249 3.93781
RightHand  0.0189623 -6.34256 -5.7605
LeftUpLeg  -27.9743 -6.7707 8.35905
LeftLeg  13.1666 -5.24392 0.385301
LeftFoot  4.86007 2.27707 -16.1173
LeftToes  -1.43952e-010 7.51141e-011 -1.22592e-011
2117
root  -17.8919 37.9825 -72.0615 -177.714 64.228 179.873
RightUpLeg  5.35702 11.7306 3.43637
RightLeg  29.9955 2.87707 1.55982
RightFoot  -23.2512 -0.177116 -0.188521
RightToes  1.218e-010 1.26228e-014 -6.01869e-014
Spine  -6.99176 -1.81244 -3.88954
Spine1  10.0796 -2.35725 1.72242
HEad  17.5399 -31.0563 10.7694
LeftShoulder1  0.306646 2.1927 -21.4352
LeftArm  -1.64607 15.8708 -43.4705
LeftForeArm  38.9214 2.21882 -12.3835
LeftHand  -0.0339285 4.57892 1.48971
RightShoulder  0.595584 -1.56295 27.9128
RightArm  -26.0538 -12.1545 38.9647
RightForeArm  75.282 -5.02045 3.07865
RightHand  0.0440345 -6.82241 -6.01257
LeftUpLeg  -28.9101 -8.14303 8.00336
LeftLeg  17.5889 -2.83648 -0.647962
LeftFoot  4.30129 1.78903 -13.1687
LeftToes  -1.43952e-010 7.51141e-011 -1.22592e-011
2118
root  -17.22 38.0418 -72.8688 -178.764 66.1254 178.347
RightUpLeg  3.3326 11.7096 1.20368
RightLeg  35.2787 5.20542 3.69806
RightFoot  -20.6838 -0.0481142 1.1249
RightToes  1.218e-010 1.26228e-014 -6.01869e-014
Spine  -6.94964 -1.39712 -4.07754
Spine1  10.3622 -1.5765 0.135251
HEad  17.1925 -30.7412 11.2153
LeftShoulder1  0.267774 2.33763 -21.5578
LeftArm  -1.18176 15.7428 -42.9462
LeftForeArm  37.9011 1.05104 -12.4636
LeftHand  -0.0354966 4.62947 1.83871
RightShoulder  0.68677 -1.26828 27.4868
RightArm  -28.0142 -13.1111 40.5112
RightForeArm  76.5892 -4.81262 2.16222
RightHand  0.0460404 -6.85755 -6.03723
LeftUpLeg  -28.73 -6.561 6.18054
LeftLeg  20.2202 -2.74888 -0.789605
LeftFoot  3.92946 1.14999 -8.74519
LeftToes  -1.43952e-010 7.51141e-011 -1.22592e-011
